<mxfile host="app.diagrams.net" modified="2021-07-21T09:22:58.666Z" agent="5.0 (Windows NT 10.0; Win64; x64) AppleWebKit/537.36 (KHTML, like Gecko) Chrome/91.0.4472.164 Safari/537.36" etag="xLtv4dWusDYtvmbjC4Hn" version="14.9.0" type="github">
  <diagram id="IjaWY0zf3HzTxPCDMhlA" name="Page-1">
    <mxGraphModel dx="972" dy="820" grid="1" gridSize="10" guides="1" tooltips="1" connect="1" arrows="1" fold="1" page="1" pageScale="1" pageWidth="827" pageHeight="1169" math="0" shadow="0">
      <root>
        <mxCell id="0" />
        <mxCell id="1" parent="0" />
        <mxCell id="nLw4E7hteiz8z2YE4haK-1" value="PROJ (Project)" style="shape=table;startSize=30;container=1;collapsible=1;childLayout=tableLayout;fixedRows=1;rowLines=0;fontStyle=1;align=center;resizeLast=1;" vertex="1" parent="1">
          <mxGeometry x="330" y="270" width="180" height="160" as="geometry">
            <mxRectangle x="320" y="340" width="60" height="30" as="alternateBounds" />
          </mxGeometry>
        </mxCell>
        <mxCell id="nLw4E7hteiz8z2YE4haK-2" value="" style="shape=partialRectangle;collapsible=0;dropTarget=0;pointerEvents=0;fillColor=none;top=0;left=0;bottom=1;right=0;points=[[0,0.5],[1,0.5]];portConstraint=eastwest;" vertex="1" parent="nLw4E7hteiz8z2YE4haK-1">
          <mxGeometry y="30" width="180" height="30" as="geometry" />
        </mxCell>
        <mxCell id="nLw4E7hteiz8z2YE4haK-3" value="PK" style="shape=partialRectangle;connectable=0;fillColor=none;top=0;left=0;bottom=0;right=0;fontStyle=1;overflow=hidden;" vertex="1" parent="nLw4E7hteiz8z2YE4haK-2">
          <mxGeometry width="30" height="30" as="geometry" />
        </mxCell>
        <mxCell id="nLw4E7hteiz8z2YE4haK-4" value="PSPNR (ProjectID)" style="shape=partialRectangle;connectable=0;fillColor=none;top=0;left=0;bottom=0;right=0;align=left;spacingLeft=6;fontStyle=5;overflow=hidden;" vertex="1" parent="nLw4E7hteiz8z2YE4haK-2">
          <mxGeometry x="30" width="150" height="30" as="geometry" />
        </mxCell>
        <mxCell id="nLw4E7hteiz8z2YE4haK-5" value="" style="shape=partialRectangle;collapsible=0;dropTarget=0;pointerEvents=0;fillColor=none;top=0;left=0;bottom=0;right=0;points=[[0,0.5],[1,0.5]];portConstraint=eastwest;" vertex="1" parent="nLw4E7hteiz8z2YE4haK-1">
          <mxGeometry y="60" width="180" height="30" as="geometry" />
        </mxCell>
        <mxCell id="nLw4E7hteiz8z2YE4haK-6" value="" style="shape=partialRectangle;connectable=0;fillColor=none;top=0;left=0;bottom=0;right=0;editable=1;overflow=hidden;" vertex="1" parent="nLw4E7hteiz8z2YE4haK-5">
          <mxGeometry width="30" height="30" as="geometry" />
        </mxCell>
        <mxCell id="nLw4E7hteiz8z2YE4haK-7" value="PSPID (Projectname)" style="shape=partialRectangle;connectable=0;fillColor=none;top=0;left=0;bottom=0;right=0;align=left;spacingLeft=6;overflow=hidden;" vertex="1" parent="nLw4E7hteiz8z2YE4haK-5">
          <mxGeometry x="30" width="150" height="30" as="geometry" />
        </mxCell>
        <mxCell id="nLw4E7hteiz8z2YE4haK-8" value="" style="shape=partialRectangle;collapsible=0;dropTarget=0;pointerEvents=0;fillColor=none;top=0;left=0;bottom=0;right=0;points=[[0,0.5],[1,0.5]];portConstraint=eastwest;" vertex="1" parent="nLw4E7hteiz8z2YE4haK-1">
          <mxGeometry y="90" width="180" height="30" as="geometry" />
        </mxCell>
        <mxCell id="nLw4E7hteiz8z2YE4haK-9" value="" style="shape=partialRectangle;connectable=0;fillColor=none;top=0;left=0;bottom=0;right=0;editable=1;overflow=hidden;" vertex="1" parent="nLw4E7hteiz8z2YE4haK-8">
          <mxGeometry width="30" height="30" as="geometry" />
        </mxCell>
        <mxCell id="nLw4E7hteiz8z2YE4haK-10" value="ERDAT (DateCreated)" style="shape=partialRectangle;connectable=0;fillColor=none;top=0;left=0;bottom=0;right=0;align=left;spacingLeft=6;overflow=hidden;" vertex="1" parent="nLw4E7hteiz8z2YE4haK-8">
          <mxGeometry x="30" width="150" height="30" as="geometry" />
        </mxCell>
        <mxCell id="nLw4E7hteiz8z2YE4haK-11" value="" style="shape=partialRectangle;collapsible=0;dropTarget=0;pointerEvents=0;fillColor=none;top=0;left=0;bottom=0;right=0;points=[[0,0.5],[1,0.5]];portConstraint=eastwest;" vertex="1" parent="nLw4E7hteiz8z2YE4haK-1">
          <mxGeometry y="120" width="180" height="30" as="geometry" />
        </mxCell>
        <mxCell id="nLw4E7hteiz8z2YE4haK-12" value="" style="shape=partialRectangle;connectable=0;fillColor=none;top=0;left=0;bottom=0;right=0;editable=1;overflow=hidden;" vertex="1" parent="nLw4E7hteiz8z2YE4haK-11">
          <mxGeometry width="30" height="30" as="geometry" />
        </mxCell>
        <mxCell id="nLw4E7hteiz8z2YE4haK-13" value="ERNAM (CreatorName)" style="shape=partialRectangle;connectable=0;fillColor=none;top=0;left=0;bottom=0;right=0;align=left;spacingLeft=6;overflow=hidden;" vertex="1" parent="nLw4E7hteiz8z2YE4haK-11">
          <mxGeometry x="30" width="150" height="30" as="geometry" />
        </mxCell>
        <mxCell id="nLw4E7hteiz8z2YE4haK-17" value="PRPS (WBS)" style="shape=table;startSize=30;container=1;collapsible=1;childLayout=tableLayout;fixedRows=1;rowLines=0;fontStyle=1;align=center;resizeLast=1;" vertex="1" parent="1">
          <mxGeometry x="330" y="520" width="180" height="160" as="geometry" />
        </mxCell>
        <mxCell id="nLw4E7hteiz8z2YE4haK-18" value="" style="shape=partialRectangle;collapsible=0;dropTarget=0;pointerEvents=0;fillColor=none;top=0;left=0;bottom=1;right=0;points=[[0,0.5],[1,0.5]];portConstraint=eastwest;" vertex="1" parent="nLw4E7hteiz8z2YE4haK-17">
          <mxGeometry y="30" width="180" height="30" as="geometry" />
        </mxCell>
        <mxCell id="nLw4E7hteiz8z2YE4haK-19" value="PK" style="shape=partialRectangle;connectable=0;fillColor=none;top=0;left=0;bottom=0;right=0;fontStyle=1;overflow=hidden;" vertex="1" parent="nLw4E7hteiz8z2YE4haK-18">
          <mxGeometry width="30" height="30" as="geometry" />
        </mxCell>
        <mxCell id="nLw4E7hteiz8z2YE4haK-20" value="PSPNR (WBS Number)" style="shape=partialRectangle;connectable=0;fillColor=none;top=0;left=0;bottom=0;right=0;align=left;spacingLeft=6;fontStyle=5;overflow=hidden;" vertex="1" parent="nLw4E7hteiz8z2YE4haK-18">
          <mxGeometry x="30" width="150" height="30" as="geometry" />
        </mxCell>
        <mxCell id="nLw4E7hteiz8z2YE4haK-21" value="" style="shape=partialRectangle;collapsible=0;dropTarget=0;pointerEvents=0;fillColor=none;top=0;left=0;bottom=0;right=0;points=[[0,0.5],[1,0.5]];portConstraint=eastwest;" vertex="1" parent="nLw4E7hteiz8z2YE4haK-17">
          <mxGeometry y="60" width="180" height="30" as="geometry" />
        </mxCell>
        <mxCell id="nLw4E7hteiz8z2YE4haK-22" value="" style="shape=partialRectangle;connectable=0;fillColor=none;top=0;left=0;bottom=0;right=0;editable=1;overflow=hidden;" vertex="1" parent="nLw4E7hteiz8z2YE4haK-21">
          <mxGeometry width="30" height="30" as="geometry" />
        </mxCell>
        <mxCell id="nLw4E7hteiz8z2YE4haK-23" value="PSPHI (ProjectID)" style="shape=partialRectangle;connectable=0;fillColor=none;top=0;left=0;bottom=0;right=0;align=left;spacingLeft=6;overflow=hidden;" vertex="1" parent="nLw4E7hteiz8z2YE4haK-21">
          <mxGeometry x="30" width="150" height="30" as="geometry" />
        </mxCell>
        <mxCell id="nLw4E7hteiz8z2YE4haK-24" value="" style="shape=partialRectangle;collapsible=0;dropTarget=0;pointerEvents=0;fillColor=none;top=0;left=0;bottom=0;right=0;points=[[0,0.5],[1,0.5]];portConstraint=eastwest;" vertex="1" parent="nLw4E7hteiz8z2YE4haK-17">
          <mxGeometry y="90" width="180" height="30" as="geometry" />
        </mxCell>
        <mxCell id="nLw4E7hteiz8z2YE4haK-25" value="" style="shape=partialRectangle;connectable=0;fillColor=none;top=0;left=0;bottom=0;right=0;editable=1;overflow=hidden;" vertex="1" parent="nLw4E7hteiz8z2YE4haK-24">
          <mxGeometry width="30" height="30" as="geometry" />
        </mxCell>
        <mxCell id="nLw4E7hteiz8z2YE4haK-26" value="POSKI (ShortID)" style="shape=partialRectangle;connectable=0;fillColor=none;top=0;left=0;bottom=0;right=0;align=left;spacingLeft=6;overflow=hidden;" vertex="1" parent="nLw4E7hteiz8z2YE4haK-24">
          <mxGeometry x="30" width="150" height="30" as="geometry" />
        </mxCell>
        <mxCell id="nLw4E7hteiz8z2YE4haK-27" value="" style="shape=partialRectangle;collapsible=0;dropTarget=0;pointerEvents=0;fillColor=none;top=0;left=0;bottom=0;right=0;points=[[0,0.5],[1,0.5]];portConstraint=eastwest;" vertex="1" parent="nLw4E7hteiz8z2YE4haK-17">
          <mxGeometry y="120" width="180" height="30" as="geometry" />
        </mxCell>
        <mxCell id="nLw4E7hteiz8z2YE4haK-28" value="" style="shape=partialRectangle;connectable=0;fillColor=none;top=0;left=0;bottom=0;right=0;editable=1;overflow=hidden;" vertex="1" parent="nLw4E7hteiz8z2YE4haK-27">
          <mxGeometry width="30" height="30" as="geometry" />
        </mxCell>
        <mxCell id="nLw4E7hteiz8z2YE4haK-29" value="STUFE (HierarchyLevel)" style="shape=partialRectangle;connectable=0;fillColor=none;top=0;left=0;bottom=0;right=0;align=left;spacingLeft=6;overflow=hidden;" vertex="1" parent="nLw4E7hteiz8z2YE4haK-27">
          <mxGeometry x="30" width="150" height="30" as="geometry" />
        </mxCell>
        <mxCell id="nLw4E7hteiz8z2YE4haK-30" value="" style="fontSize=12;html=1;endArrow=ERoneToMany;startArrow=ERmandOne;entryX=0.5;entryY=0;entryDx=0;entryDy=0;rounded=1;jumpStyle=none;exitX=0.5;exitY=1;exitDx=0;exitDy=0;" edge="1" parent="1" source="nLw4E7hteiz8z2YE4haK-1" target="nLw4E7hteiz8z2YE4haK-17">
          <mxGeometry width="100" height="100" relative="1" as="geometry">
            <mxPoint x="414" y="430" as="sourcePoint" />
            <mxPoint x="514" y="330" as="targetPoint" />
          </mxGeometry>
        </mxCell>
        <UserObject label="1:n" placeholders="1" name="Variable" id="nLw4E7hteiz8z2YE4haK-32">
          <mxCell style="text;html=1;strokeColor=none;fillColor=none;align=center;verticalAlign=middle;whiteSpace=wrap;overflow=hidden;rotation=0;" vertex="1" parent="1">
            <mxGeometry x="400" y="460" width="80" height="20" as="geometry" />
          </mxCell>
        </UserObject>
        <mxCell id="nLw4E7hteiz8z2YE4haK-33" value="PRHI (Hierarchy)" style="shape=table;startSize=30;container=1;collapsible=1;childLayout=tableLayout;fixedRows=1;rowLines=0;fontStyle=1;align=center;resizeLast=1;" vertex="1" parent="1">
          <mxGeometry x="60" y="520" width="180" height="160" as="geometry" />
        </mxCell>
        <mxCell id="nLw4E7hteiz8z2YE4haK-34" value="" style="shape=partialRectangle;collapsible=0;dropTarget=0;pointerEvents=0;fillColor=none;top=0;left=0;bottom=1;right=0;points=[[0,0.5],[1,0.5]];portConstraint=eastwest;" vertex="1" parent="nLw4E7hteiz8z2YE4haK-33">
          <mxGeometry y="30" width="180" height="30" as="geometry" />
        </mxCell>
        <mxCell id="nLw4E7hteiz8z2YE4haK-35" value="PK" style="shape=partialRectangle;connectable=0;fillColor=none;top=0;left=0;bottom=0;right=0;fontStyle=1;overflow=hidden;" vertex="1" parent="nLw4E7hteiz8z2YE4haK-34">
          <mxGeometry width="30" height="30" as="geometry" />
        </mxCell>
        <mxCell id="nLw4E7hteiz8z2YE4haK-36" value="POSNR (WBS Number)" style="shape=partialRectangle;connectable=0;fillColor=none;top=0;left=0;bottom=0;right=0;align=left;spacingLeft=6;fontStyle=5;overflow=hidden;" vertex="1" parent="nLw4E7hteiz8z2YE4haK-34">
          <mxGeometry x="30" width="150" height="30" as="geometry" />
        </mxCell>
        <mxCell id="nLw4E7hteiz8z2YE4haK-37" value="" style="shape=partialRectangle;collapsible=0;dropTarget=0;pointerEvents=0;fillColor=none;top=0;left=0;bottom=0;right=0;points=[[0,0.5],[1,0.5]];portConstraint=eastwest;" vertex="1" parent="nLw4E7hteiz8z2YE4haK-33">
          <mxGeometry y="60" width="180" height="30" as="geometry" />
        </mxCell>
        <mxCell id="nLw4E7hteiz8z2YE4haK-38" value="" style="shape=partialRectangle;connectable=0;fillColor=none;top=0;left=0;bottom=0;right=0;editable=1;overflow=hidden;" vertex="1" parent="nLw4E7hteiz8z2YE4haK-37">
          <mxGeometry width="30" height="30" as="geometry" />
        </mxCell>
        <mxCell id="nLw4E7hteiz8z2YE4haK-39" value="PSPHI (ProjectID)" style="shape=partialRectangle;connectable=0;fillColor=none;top=0;left=0;bottom=0;right=0;align=left;spacingLeft=6;overflow=hidden;" vertex="1" parent="nLw4E7hteiz8z2YE4haK-37">
          <mxGeometry x="30" width="150" height="30" as="geometry" />
        </mxCell>
        <mxCell id="nLw4E7hteiz8z2YE4haK-40" value="" style="shape=partialRectangle;collapsible=0;dropTarget=0;pointerEvents=0;fillColor=none;top=0;left=0;bottom=0;right=0;points=[[0,0.5],[1,0.5]];portConstraint=eastwest;" vertex="1" parent="nLw4E7hteiz8z2YE4haK-33">
          <mxGeometry y="90" width="180" height="30" as="geometry" />
        </mxCell>
        <mxCell id="nLw4E7hteiz8z2YE4haK-41" value="" style="shape=partialRectangle;connectable=0;fillColor=none;top=0;left=0;bottom=0;right=0;editable=1;overflow=hidden;" vertex="1" parent="nLw4E7hteiz8z2YE4haK-40">
          <mxGeometry width="30" height="30" as="geometry" />
        </mxCell>
        <mxCell id="nLw4E7hteiz8z2YE4haK-42" value="UP (Parent)" style="shape=partialRectangle;connectable=0;fillColor=none;top=0;left=0;bottom=0;right=0;align=left;spacingLeft=6;overflow=hidden;" vertex="1" parent="nLw4E7hteiz8z2YE4haK-40">
          <mxGeometry x="30" width="150" height="30" as="geometry" />
        </mxCell>
        <mxCell id="nLw4E7hteiz8z2YE4haK-43" value="" style="shape=partialRectangle;collapsible=0;dropTarget=0;pointerEvents=0;fillColor=none;top=0;left=0;bottom=0;right=0;points=[[0,0.5],[1,0.5]];portConstraint=eastwest;" vertex="1" parent="nLw4E7hteiz8z2YE4haK-33">
          <mxGeometry y="120" width="180" height="30" as="geometry" />
        </mxCell>
        <mxCell id="nLw4E7hteiz8z2YE4haK-44" value="" style="shape=partialRectangle;connectable=0;fillColor=none;top=0;left=0;bottom=0;right=0;editable=1;overflow=hidden;" vertex="1" parent="nLw4E7hteiz8z2YE4haK-43">
          <mxGeometry width="30" height="30" as="geometry" />
        </mxCell>
        <mxCell id="nLw4E7hteiz8z2YE4haK-45" value="DOWN" style="shape=partialRectangle;connectable=0;fillColor=none;top=0;left=0;bottom=0;right=0;align=left;spacingLeft=6;overflow=hidden;" vertex="1" parent="nLw4E7hteiz8z2YE4haK-43">
          <mxGeometry x="30" width="150" height="30" as="geometry" />
        </mxCell>
        <mxCell id="nLw4E7hteiz8z2YE4haK-46" value="" style="edgeStyle=entityRelationEdgeStyle;fontSize=12;html=1;endArrow=ERmandOne;startArrow=ERmandOne;strokeColor=#000000;entryX=0;entryY=0.5;entryDx=0;entryDy=0;exitX=1;exitY=0.5;exitDx=0;exitDy=0;" edge="1" parent="1" source="nLw4E7hteiz8z2YE4haK-40" target="nLw4E7hteiz8z2YE4haK-24">
          <mxGeometry width="100" height="100" relative="1" as="geometry">
            <mxPoint x="220" y="710" as="sourcePoint" />
            <mxPoint x="320" y="610" as="targetPoint" />
          </mxGeometry>
        </mxCell>
        <mxCell id="nLw4E7hteiz8z2YE4haK-47" value="PRTE (Scheduling Data)" style="shape=table;startSize=30;container=1;collapsible=1;childLayout=tableLayout;fixedRows=1;rowLines=0;fontStyle=1;align=center;resizeLast=1;" vertex="1" parent="1">
          <mxGeometry x="610" y="520" width="180" height="160" as="geometry" />
        </mxCell>
        <mxCell id="nLw4E7hteiz8z2YE4haK-48" value="" style="shape=partialRectangle;collapsible=0;dropTarget=0;pointerEvents=0;fillColor=none;top=0;left=0;bottom=1;right=0;points=[[0,0.5],[1,0.5]];portConstraint=eastwest;" vertex="1" parent="nLw4E7hteiz8z2YE4haK-47">
          <mxGeometry y="30" width="180" height="30" as="geometry" />
        </mxCell>
        <mxCell id="nLw4E7hteiz8z2YE4haK-49" value="PK" style="shape=partialRectangle;connectable=0;fillColor=none;top=0;left=0;bottom=0;right=0;fontStyle=1;overflow=hidden;" vertex="1" parent="nLw4E7hteiz8z2YE4haK-48">
          <mxGeometry width="30" height="30" as="geometry" />
        </mxCell>
        <mxCell id="nLw4E7hteiz8z2YE4haK-50" value="POSNR (WBS Number)" style="shape=partialRectangle;connectable=0;fillColor=none;top=0;left=0;bottom=0;right=0;align=left;spacingLeft=6;fontStyle=5;overflow=hidden;" vertex="1" parent="nLw4E7hteiz8z2YE4haK-48">
          <mxGeometry x="30" width="150" height="30" as="geometry" />
        </mxCell>
        <mxCell id="nLw4E7hteiz8z2YE4haK-51" value="" style="shape=partialRectangle;collapsible=0;dropTarget=0;pointerEvents=0;fillColor=none;top=0;left=0;bottom=0;right=0;points=[[0,0.5],[1,0.5]];portConstraint=eastwest;" vertex="1" parent="nLw4E7hteiz8z2YE4haK-47">
          <mxGeometry y="60" width="180" height="30" as="geometry" />
        </mxCell>
        <mxCell id="nLw4E7hteiz8z2YE4haK-52" value="" style="shape=partialRectangle;connectable=0;fillColor=none;top=0;left=0;bottom=0;right=0;editable=1;overflow=hidden;" vertex="1" parent="nLw4E7hteiz8z2YE4haK-51">
          <mxGeometry width="30" height="30" as="geometry" />
        </mxCell>
        <mxCell id="nLw4E7hteiz8z2YE4haK-53" value="PSPHI (ProjectID)" style="shape=partialRectangle;connectable=0;fillColor=none;top=0;left=0;bottom=0;right=0;align=left;spacingLeft=6;overflow=hidden;" vertex="1" parent="nLw4E7hteiz8z2YE4haK-51">
          <mxGeometry x="30" width="150" height="30" as="geometry" />
        </mxCell>
        <mxCell id="nLw4E7hteiz8z2YE4haK-54" value="" style="shape=partialRectangle;collapsible=0;dropTarget=0;pointerEvents=0;fillColor=none;top=0;left=0;bottom=0;right=0;points=[[0,0.5],[1,0.5]];portConstraint=eastwest;" vertex="1" parent="nLw4E7hteiz8z2YE4haK-47">
          <mxGeometry y="90" width="180" height="30" as="geometry" />
        </mxCell>
        <mxCell id="nLw4E7hteiz8z2YE4haK-55" value="" style="shape=partialRectangle;connectable=0;fillColor=none;top=0;left=0;bottom=0;right=0;editable=1;overflow=hidden;" vertex="1" parent="nLw4E7hteiz8z2YE4haK-54">
          <mxGeometry width="30" height="30" as="geometry" />
        </mxCell>
        <mxCell id="nLw4E7hteiz8z2YE4haK-56" value="PSTRT (StartDate)" style="shape=partialRectangle;connectable=0;fillColor=none;top=0;left=0;bottom=0;right=0;align=left;spacingLeft=6;overflow=hidden;" vertex="1" parent="nLw4E7hteiz8z2YE4haK-54">
          <mxGeometry x="30" width="150" height="30" as="geometry" />
        </mxCell>
        <mxCell id="nLw4E7hteiz8z2YE4haK-57" value="" style="shape=partialRectangle;collapsible=0;dropTarget=0;pointerEvents=0;fillColor=none;top=0;left=0;bottom=0;right=0;points=[[0,0.5],[1,0.5]];portConstraint=eastwest;" vertex="1" parent="nLw4E7hteiz8z2YE4haK-47">
          <mxGeometry y="120" width="180" height="30" as="geometry" />
        </mxCell>
        <mxCell id="nLw4E7hteiz8z2YE4haK-58" value="" style="shape=partialRectangle;connectable=0;fillColor=none;top=0;left=0;bottom=0;right=0;editable=1;overflow=hidden;" vertex="1" parent="nLw4E7hteiz8z2YE4haK-57">
          <mxGeometry width="30" height="30" as="geometry" />
        </mxCell>
        <mxCell id="nLw4E7hteiz8z2YE4haK-59" value="PENDE (EndDate)" style="shape=partialRectangle;connectable=0;fillColor=none;top=0;left=0;bottom=0;right=0;align=left;spacingLeft=6;overflow=hidden;" vertex="1" parent="nLw4E7hteiz8z2YE4haK-57">
          <mxGeometry x="30" width="150" height="30" as="geometry" />
        </mxCell>
        <mxCell id="nLw4E7hteiz8z2YE4haK-60" value="" style="edgeStyle=entityRelationEdgeStyle;fontSize=12;html=1;endArrow=ERmandOne;startArrow=ERmandOne;strokeColor=#000000;entryX=0;entryY=0.5;entryDx=0;entryDy=0;exitX=1;exitY=0.5;exitDx=0;exitDy=0;" edge="1" parent="1" source="nLw4E7hteiz8z2YE4haK-24" target="nLw4E7hteiz8z2YE4haK-54">
          <mxGeometry width="100" height="100" relative="1" as="geometry">
            <mxPoint x="520" y="620" as="sourcePoint" />
            <mxPoint x="610" y="620" as="targetPoint" />
          </mxGeometry>
        </mxCell>
      </root>
    </mxGraphModel>
  </diagram>
</mxfile>
